<?xml version="1.0" encoding="utf-8"?>
<!-- Generator: Adobe Illustrator 24.1.1, SVG Export Plug-In . SVG Version: 6.00 Build 0)  -->
<svg version="1.1" id="Layer_1" xmlns="http://www.w3.org/2000/svg" xmlns:xlink="http://www.w3.org/1999/xlink" x="0px" y="0px"
	 viewBox="0 0 512 512" style="enable-background:new 0 0 512 512;" xml:space="preserve">
<g id="XMLID_3_">
	<path id="XMLID_7_" d="M396.6,271.8c-0.9-65.2,53.1-95.9,54.9-97.7c-29.8-43.8-77.3-50.3-94-50.3c-40-3.7-78.2,23.3-97.7,23.3
		c-20.5,0-51.2-23.3-84.7-22.3C131.3,125.7,91.3,149.9,69,189c-45.6,78.2-11.2,194.6,32.6,257.9c21.4,30.7,47.5,66.1,81,65.2
		c32.6-0.9,44.7-21.4,83.8-21.4s50.3,21.4,84.7,20.5c34.4-0.9,56.8-31.6,78.2-63.3c25.1-36.3,34.4-70.7,35.4-72.6
		C464.6,375.1,397.6,349.1,396.6,271.8L396.6,271.8z M332.4,81.9c17.7-21.4,29.8-52.1,27-81.9c-26.1,0.9-56.8,16.8-75.4,39.1
		c-16.8,19.5-30.7,50.3-27,79.1C284.9,120.1,314.7,103.3,332.4,81.9L332.4,81.9z"/>
</g>
</svg>
